<?xml version="1.0" encoding="UTF-8"?>
<svg version="1.1" xmlns="http://www.w3.org/2000/svg" width="2001" height="513">
<path d="M0 0 C27.06 0 54.12 0 82 0 C87.7424016 20.67264577 87.7424016 20.67264577 90.02001953 29.70117188 C90.28320543 30.73728639 90.54639133 31.7734009 90.81755257 32.84091282 C91.67450684 36.21638793 92.5286543 39.59256638 93.3828125 42.96875 C93.99660505 45.38827014 94.61060341 47.80773808 95.22479248 50.22715759 C96.52264461 55.34093896 97.81941374 60.4549935 99.11517334 65.56930542 C102.32481983 78.23714801 105.54178526 90.90313353 108.7584424 103.56919742 C109.26596113 105.56772987 109.77340668 107.56628089 110.2808342 109.5648365 C116.11207088 132.53101586 121.9748967 155.48891937 127.875 178.4375 C128.2462793 179.88199807 128.61755621 181.32649675 128.98883057 182.77099609 C133.97940261 202.1840556 138.99137781 221.59158902 144 241 C144.495 121.705 144.495 121.705 145 0 C164.47 0 183.94 0 204 0 C204 135.63 204 271.26 204 411 C181.56 411 159.12 411 136 411 C132.20712116 397.72492405 128.50397544 384.48539156 125.12109375 371.109375 C124.67235731 369.34533448 124.22330162 367.58137515 123.7739563 365.81748962 C122.82129459 362.07601992 121.87029777 358.33413307 120.92068481 354.59188843 C118.35890022 344.49799131 115.78440449 334.40732987 113.2109375 324.31640625 C112.94907465 323.28924311 112.6872118 322.26207996 112.41741371 321.20379066 C107.18562373 300.68449436 101.88815236 280.18260863 96.5625 259.6875 C96.14120737 258.06598099 95.71992238 256.44445999 95.29864502 254.82293701 C95.08965639 254.0185318 94.88066776 253.21412659 94.66534615 252.38534546 C93.59448915 248.26343768 92.52377277 244.14149338 91.453125 240.01953125 C91.23902859 239.19537971 91.02493217 238.37122818 90.80434799 237.52210236 C86.99489473 222.85591521 83.20537184 208.18462149 79.421875 193.51171875 C79.14537046 192.43950514 78.86886593 191.36729153 78.58398247 190.26258659 C75.86005043 179.69960676 73.13719607 169.13635012 70.41654015 158.57252598 C69.41618572 154.68903166 68.41512214 150.80572038 67.41390228 146.92244911 C66.94797748 145.11459364 66.48238826 143.30665163 66.01715851 141.49861717 C65.37790822 139.01432617 64.73754018 136.53032575 64.09692383 134.04638672 C63.82049215 132.97028656 63.82049215 132.97028656 63.53847599 131.87244701 C62.42434936 127.55832837 61.22478504 123.28674764 60 119 C59.67 215.36 59.34 311.72 59 411 C39.53 411 20.06 411 0 411 C0 275.37 0 139.74 0 0 Z " fill="#000000" transform="translate(994,102)"/>
<path d="M0 0 C118.91262648 0 118.91262648 0 133.6875 4.125 C134.4609375 4.33672852 135.234375 4.54845703 136.03125 4.76660156 C154.357245 10.09793644 170.19465775 20.5325857 179.90625 37.2890625 C190.96259069 58.41791696 192.52122524 80.59734912 192.39111328 104.05419922 C192.3750179 107.49617117 192.39106429 110.93696937 192.41015625 114.37890625 C192.43660203 141.59380961 189.77986606 168.83855668 169.87890625 189.26171875 C164.16610234 194.69547118 158.06494758 198.56437614 151 202 C151.89460938 202.40089844 152.78921875 202.80179688 153.7109375 203.21484375 C170.24390744 210.88038003 179.99830696 221.85243992 186.32714844 239.01953125 C193.29236381 259.52091988 193.28578793 281.98037498 193.30496025 303.38831902 C193.30871288 306.75936107 193.32566732 310.13013129 193.34571838 313.50111389 C193.40033651 323.06587653 193.43183704 332.63067391 193.45629883 342.19555664 C193.47228057 348.09662068 193.50258538 353.9974815 193.54106331 359.89843941 C193.55259364 362.12085358 193.55864259 364.34330413 193.55874443 366.56574821 C193.55972256 382.20704023 195.199089 395.79635602 199 411 C176.89 411 154.78 411 132 411 C128.54031525 397.161261 126.85735268 385.68255804 126.84228516 371.77807617 C126.83720444 370.72752548 126.83212372 369.67697479 126.82688904 368.59458923 C126.81627248 366.3357899 126.80761895 364.07698063 126.80076981 361.81816673 C126.78885306 358.22990544 126.76937029 354.64175775 126.74765015 351.05354309 C126.68645226 340.85889516 126.63206362 330.6642625 126.59863281 320.46948242 C126.57757035 314.21151476 126.54218356 307.95376145 126.49787521 301.69591713 C126.48381667 299.32754363 126.475016 296.95913229 126.47182083 294.59071922 C127.00801101 268.7008907 127.00801101 268.7008907 116.21484375 245.94140625 C102.90114014 233.21001175 81.53975255 236.55132508 65 236 C65 293.75 65 351.5 65 411 C43.55 411 22.1 411 0 411 C0 275.37 0 139.74 0 0 Z M65 60 C65 98.28 65 136.56 65 176 C93.81228204 178.12664105 93.81228204 178.12664105 118 166 C128.42726607 153.61251681 127.18674008 135.61548405 127.18530273 120.40698242 C127.18748043 117.83560399 127.20566475 115.2646618 127.22460938 112.69335938 C127.44371829 87.87181039 127.44371829 87.87181039 115.93359375 66.69140625 C102.22987563 54.70411343 81.13999264 60 65 60 Z " fill="#000000" transform="translate(1593,102)"/>
<path d="M0 0 C23.60054495 24.40510898 26.88999222 57.4052116 26.79443359 89.75390625 C26.79851044 92.1071395 26.80385849 94.46037084 26.81036377 96.81359863 C26.82391089 103.14005835 26.81879135 109.46636947 26.80922651 115.79283142 C26.80234376 121.77552994 26.80763054 127.75821564 26.8120081 133.74091387 C26.8205199 146.31161442 26.81079451 158.88224886 26.794607 171.45293856 C26.78120767 182.19001292 26.78353695 192.9269899 26.79736328 203.6640625 C26.81349412 216.19623282 26.81969632 228.7283455 26.81052649 241.26052475 C26.80581887 247.87117124 26.80514147 254.48176382 26.81513596 261.09240723 C26.82388317 267.31101567 26.81764389 273.52944253 26.80045319 279.74803162 C26.79652937 282.01293132 26.79755065 284.27784665 26.80424118 286.54273987 C26.88401771 316.32357151 23.45732969 347.59623262 2.40625 370.48828125 C1.70757813 371.266875 1.00890625 372.04546875 0.2890625 372.84765625 C-5.03784436 378.4968315 -10.81545429 382.72352083 -17.59375 386.48828125 C-18.18418091 386.89476898 -18.77461182 387.30125671 -19.38293457 387.72006226 C-28.08896918 393.05312905 -37.57532251 392.28965441 -47.44140625 392.29296875 C-49.38179634 392.30652584 -51.32218051 392.3209562 -53.26255798 392.33621216 C-57.3215981 392.36155149 -61.38010201 392.36693077 -65.43920898 392.35986328 C-70.59505381 392.35378686 -75.74794248 392.41151885 -80.90316105 392.48652458 C-84.91092578 392.53506059 -88.91800005 392.54154747 -92.92602348 392.53686905 C-94.82395411 392.54087433 -96.72191802 392.55902654 -98.61955452 392.59267807 C-116.10087454 392.87083716 -129.05464488 387.722925 -141.68408871 375.50860786 C-143.00159755 374.18254386 -144.29844582 372.83604323 -145.59375 371.48828125 C-146.25632812 370.8334375 -146.91890625 370.17859375 -147.6015625 369.50390625 C-169.16806614 346.87358405 -170.90431996 313.99657243 -170.8684082 284.59082031 C-170.87276382 282.21699871 -170.87794977 279.84317851 -170.88389587 277.46936035 C-170.89720632 271.06419452 -170.89787341 264.65908797 -170.89533257 258.25391102 C-170.89404194 254.24147254 -170.89668552 250.22904284 -170.90032005 246.21660614 C-170.90091524 245.54736029 -170.90151043 244.87811445 -170.90212366 244.18858843 C-170.9033356 242.82833959 -170.90454974 241.46809077 -170.90576603 240.10784194 C-170.91660577 227.39318936 -170.91449617 214.6785634 -170.90838119 201.96390936 C-170.90321627 190.37745579 -170.91446262 178.79108641 -170.93347941 167.20464948 C-170.95293516 155.25754735 -170.96110025 143.31048489 -170.95735615 131.36336684 C-170.95545565 124.67609414 -170.95808945 117.98890823 -170.97207069 111.30164337 C-170.9847392 105.00760342 -170.98262038 98.71373068 -170.96965981 92.41969299 C-170.96731393 90.12534781 -170.96995621 87.83099052 -170.97828293 85.53665924 C-171.08383882 54.16076951 -166.36377358 23.46423635 -143.97412109 -0.125 C-108.00817995 -36.25633104 -36.46387942 -34.32912698 0 0 Z M-96.59375 43.48828125 C-105.39552136 54.14667625 -105.7513449 68.12738961 -105.72746277 81.32157898 C-105.72972833 82.25875678 -105.73199388 83.19593459 -105.73432809 84.16151172 C-105.74061311 87.2739471 -105.73984229 90.38633831 -105.73901367 93.4987793 C-105.74200861 95.74189815 -105.74541192 97.98501649 -105.74919128 100.22813416 C-105.75800177 106.30273834 -105.76036817 112.37732843 -105.76100707 118.45193839 C-105.76171929 122.25290621 -105.76385689 126.05387048 -105.76650429 129.85483742 C-105.77527182 142.44740519 -105.77992521 155.03996273 -105.77917381 167.63253274 C-105.77913386 168.30994684 -105.7790939 168.98736094 -105.77905273 169.68530273 C-105.77901185 170.36355446 -105.77897097 171.04180619 -105.77892885 171.74061099 C-105.77852274 182.7229515 -105.78808611 193.70525766 -105.8021911 204.68758824 C-105.81659615 215.99375486 -105.82327638 227.29989958 -105.82259732 238.60607749 C-105.82234315 244.94170758 -105.82514963 251.27729877 -105.83577538 257.61292076 C-105.84550391 263.57606076 -105.84550309 269.53912507 -105.83825874 275.50226784 C-105.83721877 277.68099199 -105.83954058 279.85972097 -105.8456192 282.03843689 C-106.5774112 307.96196023 -106.5774112 307.96196023 -95.703125 330.6796875 C-88.81326726 337.17622659 -81.52242368 339.04484277 -72.21875 338.92578125 C-70.96529785 338.91333374 -70.96529785 338.91333374 -69.68652344 338.90063477 C-61.38367783 338.67341431 -55.10122177 337.00775207 -48.78125 331.42578125 C-36.00973915 317.11807451 -38.29746464 294.98230668 -38.33496094 277.06616211 C-38.33224451 274.86304103 -38.32867995 272.65992085 -38.32434082 270.45680237 C-38.31529253 264.52301669 -38.31872947 258.58930125 -38.32509899 252.65551448 C-38.33019778 246.41703411 -38.32545689 240.17855936 -38.32232666 233.94007874 C-38.3184668 222.80031875 -38.32464254 211.66058616 -38.33484533 200.52083159 C-38.34378088 190.45356934 -38.3422241 180.38635322 -38.33300781 170.3190918 C-38.32226637 158.5806368 -38.31834095 146.84220867 -38.32423234 135.10374933 C-38.32733547 128.90736539 -38.32780719 122.71101312 -38.32115936 116.51463127 C-38.31534331 110.68763661 -38.31946007 104.86072832 -38.33094788 99.0337429 C-38.3335717 96.90703728 -38.33286882 94.78032427 -38.32842255 92.65362167 C-37.44767792 65.56987817 -37.44767792 65.56987817 -48.75390625 42.0234375 C-62.16360746 30.83445114 -84.09313437 31.18298774 -96.59375 43.48828125 Z " fill="#000000" transform="translate(1410.59375,121.51171875)"/>
<path d="M0 0 C29.37 0 58.74 0 89 0 C102.14752074 79.83640292 115.19903527 159.68816922 128.18888569 239.55037928 C128.93126121 244.11435837 129.67374944 248.67831912 130.41623509 253.2422803 C136.48797582 290.56506946 136.48797582 290.56506946 139.38540649 308.41749573 C139.54910874 309.42614085 139.71281098 310.43478598 139.8814739 311.4739961 C140.52731286 315.45350028 141.17311978 319.43300964 141.8187778 323.41254318 C143.5651752 334.17617359 145.3148973 344.9392411 147.07453799 355.70071507 C148.06000653 361.72757096 149.04280622 367.75485668 150.02316403 373.78254604 C150.56561938 377.11675138 151.11021403 380.45057096 151.65801239 383.78390503 C152.23753313 387.31098704 152.81138718 390.83894438 153.38378906 394.3671875 C153.55085609 395.37442368 153.71792313 396.38165985 153.8900528 397.41941833 C154.11272953 398.80291222 154.11272953 398.80291222 154.33990479 400.21435547 C154.46854038 401.00083466 154.59717598 401.78731384 154.72970963 402.59762573 C155.04301207 405.38229656 155 408.19775982 155 411 C133.55 411 112.1 411 90 411 C88.19364146 400.76396829 86.42329453 390.58138043 84.95703125 380.30078125 C84.78370773 379.09608688 84.61038422 377.89139252 84.43180847 376.65019226 C84.07169878 374.14077624 83.71300501 371.63115663 83.35571289 369.12133789 C82.80805103 365.28130524 82.25285943 361.44240774 81.69726562 357.60351562 C81.34590095 355.14850232 80.99497344 352.6934264 80.64453125 350.23828125 C80.47895218 349.09764725 80.31337311 347.95701324 80.14277649 346.78181458 C79.99229355 345.71597641 79.84181061 344.65013824 79.68676758 343.55200195 C79.48716179 342.1566497 79.48716179 342.1566497 79.28352356 340.73310852 C78.98299598 337.83608479 79 334.91256989 79 332 C54.91 332 30.82 332 6 332 C4.9275 339.693125 3.855 347.38625 2.75 355.3125 C-1.47938799 385.54018476 -1.47938799 385.54018476 -3.375 398.5 C-3.53000977 399.57548096 -3.68501953 400.65096191 -3.84472656 401.7590332 C-3.98620117 402.71511475 -4.12767578 403.67119629 -4.2734375 404.65625 C-4.39122559 405.45869141 -4.50901367 406.26113281 -4.63037109 407.08789062 C-5 409 -5 409 -6 411 C-25.8 411 -45.6 411 -66 411 C-64.87500203 397.50002439 -64.87500203 397.50002439 -63.79084778 390.86065674 C-63.67235619 390.12698995 -63.55386461 389.39332317 -63.43178236 388.63742405 C-63.03939139 386.21490336 -62.64044879 383.79351152 -62.24145508 381.37207031 C-61.95402183 379.60619056 -61.66699909 377.84024395 -61.38034916 376.07423687 C-60.59717933 371.25662681 -59.80825657 366.43997442 -59.01834822 361.6234653 C-58.16916751 356.43911034 -57.32540188 351.25387387 -56.48098755 346.06874084 C-55.02466617 337.13075284 -53.56499498 328.19331724 -52.10299683 319.2562561 C-49.99752475 306.3856125 -47.8971849 293.51413562 -45.79820788 280.64243138 C-42.6469285 261.31815204 -39.49262294 241.99436847 -36.33582532 222.67098987 C-31.7630517 194.68011935 -27.19801465 166.68799309 -22.63684201 138.69523001 C-21.23846743 130.11323957 -19.83993579 121.53127471 -18.44142926 112.94930577 C-18.10197641 110.86623978 -17.76252642 108.78317332 -17.42307937 106.70010638 C-13.9139022 85.1656188 -10.40278481 63.63144789 -6.8904109 42.09748149 C-6.46909394 39.51433965 -6.04782018 36.93119076 -5.62656021 34.34803963 C-4.97918333 30.37837556 -4.33170241 26.40872847 -3.68413198 22.43909597 C-3.4502625 21.00537781 -3.21642627 19.57165422 -2.98262656 18.13792467 C-2.66530947 16.19209752 -2.34784842 14.24629384 -2.03038025 12.30049133 C-1.85423156 11.2205959 -1.67808287 10.14070047 -1.49659634 9.02808094 C-1.00292955 6.01786345 -0.50148742 3.00892449 0 0 Z M41 74 C37.47467928 99.32053044 33.95401749 124.64170487 30.43891144 149.96365547 C28.80670432 161.72087118 27.17296935 173.47787081 25.53564453 185.234375 C24.10867258 195.48050814 22.6845601 205.72703392 21.26388979 215.97404277 C20.51145582 221.40046156 19.75758476 226.82667197 19.00028992 232.2524147 C18.28761301 237.35881581 17.57875939 242.46573305 16.87283897 247.57307243 C16.61303711 249.44776796 16.35183704 251.32227033 16.08913612 253.19656181 C15.73065899 255.75570799 15.37722085 258.31550183 15.02502441 260.8755188 C14.91996881 261.61677667 14.81491321 262.35803454 14.7066741 263.12175477 C14.15529618 267.17396377 14 270.87094279 14 275 C32.81 275 51.62 275 71 275 C69.73285156 265.9971875 68.46570313 256.994375 67.16015625 247.71875 C66.33528225 241.85807351 65.51041027 235.99739673 64.68554688 230.13671875 C63.05562568 218.5560576 63.05562568 218.5560576 61.42565918 206.97540283 C61.2696562 205.86704244 61.2696562 205.86704244 61.11050165 204.73629093 C60.90137715 203.2505338 60.69224854 201.76477724 60.48311579 200.27902126 C59.96121337 196.57118653 59.43939055 192.86334062 58.91773033 189.1554718 C57.97675291 182.46764803 57.03527923 175.77989638 56.09102714 169.09253407 C55.56566392 165.37164047 55.04076353 161.65068169 54.51611328 157.9296875 C54.41253864 157.19515539 54.30896399 156.46062328 54.20225072 155.70383263 C52.69612466 145.01593494 51.21602516 134.3246515 49.75030863 123.63114262 C49.13217362 119.12801916 48.50970893 114.62549201 47.88707131 110.12298918 C47.29811886 105.86005738 46.71655669 101.59620159 46.14048243 97.3315115 C45.70369704 94.1139748 45.25613727 90.89793397 44.81030273 87.68164062 C44.57844804 85.93800735 44.57844804 85.93800735 44.34190941 84.15914917 C44.19394732 83.10587433 44.04598522 82.05259949 43.89353943 80.96740723 C43.76844718 80.05055397 43.64335493 79.13370071 43.51447201 78.18906403 C43.15716203 75.80611128 43.15716203 75.80611128 41 74 Z " fill="#000000" transform="translate(714,102)"/>
<path d="M0 0 C21.78 0 43.56 0 66 0 C70.31050997 31.33578919 70.31050997 31.33578919 71.92529297 43.23339844 C72.03844148 44.06706672 72.15159 44.90073501 72.26816726 45.75966597 C75.93556106 72.80341275 79.51247617 99.85931987 83.09765625 126.9140625 C83.18771264 127.59363207 83.27776902 128.27320164 83.37055439 128.97336423 C85.69753572 146.53329485 88.0221072 164.09354421 90.34584939 181.65390372 C91.69507682 191.84974928 93.0449563 202.04550835 94.39526367 212.24121094 C94.53957319 213.33084416 94.53957319 213.33084416 94.68679804 214.44249018 C95.16982794 218.0896632 95.65286835 221.73683484 96.13591397 225.38400578 C100.09223634 255.25578854 104.04673459 285.12781252 108 315 C110.53484927 299.69862294 112.60894399 284.34481689 114.63071442 268.96843231 C115.10334381 265.37813879 115.57881285 261.78822114 116.05393982 258.19825745 C116.87384254 252.00058325 117.69209787 245.80269345 118.5092659 239.60465813 C119.69107272 230.64142861 120.8762447 221.67864637 122.06234007 212.71598346 C123.98779052 198.16625028 125.91165385 183.61630781 127.83398438 169.06616211 C127.94865954 168.19819052 128.0633347 167.33021892 128.18148486 166.43594516 C129.46382241 156.72970945 130.74576675 147.02342186 132.02728271 137.31707764 C132.49376987 133.78389426 132.9602607 130.25071136 133.42675781 126.7175293 C133.54189707 125.84547515 133.65703632 124.973421 133.77566464 124.07494097 C135.6930643 109.55332734 137.61324817 95.03208339 139.53563726 80.51112944 C140.72002908 71.56378632 141.90199803 62.61612957 143.0808662 53.66805697 C143.88674041 47.55249864 144.69517494 41.43728234 145.50566007 35.32233339 C145.97346607 31.7921547 146.44006092 28.26182644 146.90352821 24.73107529 C147.40492714 20.91154447 147.91184693 17.09275848 148.41934204 13.27403259 C148.56612982 12.14887975 148.71291761 11.02372691 148.8641535 9.86447853 C149.00014688 8.84809541 149.13614026 7.83171229 149.27625465 6.78452969 C149.39272146 5.90248629 149.50918826 5.02044289 149.62918437 4.11167091 C150 2 150 2 151 0 C170.8 0 190.6 0 211 0 C207.55403908 26.41903373 207.55403908 26.41903373 206.01834106 36.4624176 C205.84119029 37.63420577 205.66403951 38.80599393 205.48152053 40.01329082 C204.90153967 43.8458735 204.31822581 47.67794049 203.73486328 51.51000977 C203.31169833 54.29986561 202.88925632 57.08983082 202.46678162 59.87979126 C201.56151304 65.85555193 200.65453233 71.83105062 199.74634171 77.80636787 C198.41910478 86.53880242 197.09463562 95.27165515 195.77076839 104.00460111 C193.60293028 118.30437305 191.43300853 132.60382797 189.26171875 146.90307617 C187.18750058 160.56308446 185.11410326 174.22321684 183.04199219 187.88354492 C182.91560951 188.71671705 182.78922683 189.54988917 182.65901437 190.40830894 C181.89650637 195.43516845 181.13403614 200.46203369 180.37158066 205.48890117 C179.24016839 212.94828464 178.10871267 220.40766153 176.97723389 227.86703491 C176.85394505 228.67983604 176.73065621 229.49263717 176.60363135 230.33006863 C174.88275189 241.67512746 173.16124432 253.02009083 171.43925521 264.36498128 C167.18111498 292.41895593 162.92432255 320.47311494 158.69042969 348.53076172 C158.37168217 350.64257678 158.05293309 352.7543916 157.73418236 354.86620617 C156.45926567 363.31405332 155.18501104 371.76199798 153.91403008 380.21043825 C153.43022173 383.4250926 152.94551606 386.63961119 152.46058702 389.85409665 C152.24320726 391.29661509 152.02625574 392.73919815 151.80978346 394.18185306 C151.52090223 396.10702849 151.23045176 398.03196826 150.93991089 399.95689392 C150.78093763 401.0137889 150.62196438 402.07068388 150.45817375 403.15960598 C150.03484828 405.78396218 149.5213315 408.39334249 149 411 C120.29 411 91.58 411 62 411 C59.7499998 400.8749991 59.7499998 400.8749991 59.14825439 396.89896202 C58.9394782 395.53481275 58.9394782 395.53481275 58.7264843 394.14310491 C58.58116831 393.17270005 58.43585232 392.2022952 58.28613281 391.20248413 C58.12561495 390.14761263 57.96509708 389.09274114 57.79971504 388.00590384 C57.26456869 384.48403126 56.73385272 380.96150578 56.203125 377.43896484 C55.81851379 374.90164724 55.43362898 372.3643711 55.04849243 369.82713318 C54.2171196 364.34720411 53.38803067 358.86693342 52.56048584 353.38642502 C51.3444486 345.33312298 50.12489372 337.28035653 48.9045732 329.22770257 C46.89845588 315.9890852 44.89513615 302.75004605 42.89355469 289.51074219 C40.99460119 276.950303 39.0944233 264.39005023 37.19238281 251.83007812 C37.07747332 251.0712729 36.96256383 250.31246767 36.84417224 249.53066835 C36.26530702 245.70817281 35.68641626 241.88568115 35.10750961 238.06319189 C32.11070252 218.2754238 29.11462737 198.48754643 26.12353516 178.69891357 C25.32592979 173.42234947 24.5282954 168.14578975 23.73062754 162.8692351 C23.50424898 161.37174019 23.27787561 159.8742445 23.05150747 158.37674803 C19.91230507 137.61041634 16.76203036 116.84580056 13.60011899 96.08291452 C12.83919305 91.08583207 12.07905383 86.08863047 11.31948853 81.09134102 C11.21458764 80.40119287 11.10968676 79.71104472 11.00160706 78.99998299 C10.58398158 76.25225165 10.16638956 73.50451524 9.74890637 70.75676228 C8.45320067 62.22880429 7.15372575 53.701432 5.85044098 45.17462826 C5.12132301 40.39825209 4.39584687 35.62132823 3.67142487 30.8442378 C3.33725028 28.6457341 3.00152967 26.44746475 2.66414642 24.24945116 C2.20642302 21.26623908 1.75414418 18.28225076 1.30322266 15.29800415 C1.16941633 14.43485859 1.03561001 13.57171304 0.89774895 12.68241155 C0.77814371 11.88333934 0.65853848 11.08426713 0.53530884 10.26098061 C0.43114466 9.5777802 0.32698048 8.89457978 0.21965981 8.19067633 C-0.05283278 5.47309654 0 2.73120708 0 0 Z " fill="#000000" transform="translate(6,102)"/>
<path d="M0 0 C58.41 0 116.82 0 177 0 C177 19.8 177 39.6 177 60 C140.04 60 103.08 60 65 60 C65 95.64 65 131.28 65 168 C94.37 168 123.74 168 154 168 C154 187.47 154 206.94 154 227 C124.63 227 95.26 227 65 227 C65 268.58 65 310.16 65 353 C101.96 353 138.92 353 177 353 C177 372.14 177 391.28 177 411 C118.59 411 60.18 411 0 411 C0 275.37 0 139.74 0 0 Z " fill="#000000" transform="translate(247,102)"/>
<path d="M0 0 C56.43 0 112.86 0 171 0 C171 19.8 171 39.6 171 60 C136.02 60 101.04 60 65 60 C65 95.64 65 131.28 65 168 C94.37 168 123.74 168 154 168 C154 187.47 154 206.94 154 227 C124.63 227 95.26 227 65 227 C65 268.58 65 310.16 65 353 C99.98 353 134.96 353 171 353 C171 372.14 171 391.28 171 411 C114.57 411 58.14 411 0 411 C0 275.37 0 139.74 0 0 Z " fill="#000000" transform="translate(1830,102)"/>
<path d="M0 0 C21.78 0 43.56 0 66 0 C66 116.49 66 232.98 66 353 C100.98 353 135.96 353 172 353 C172 372.14 172 391.28 172 411 C115.24 411 58.48 411 0 411 C0 275.37 0 139.74 0 0 Z " fill="#000000" transform="translate(460,102)"/>
<path d="M0 0 C21.45 0 42.9 0 65 0 C65 135.63 65 271.26 65 411 C43.55 411 22.1 411 0 411 C0 275.37 0 139.74 0 0 Z " fill="#000000" transform="translate(1480,102)"/>
<path d="M0 0 C4.20178142 0.19582802 8.40573199 0.28143757 12.61077881 0.37689209 C20.83420763 0.57954902 29.0470225 0.90287396 37.26312256 1.30462646 C35.73708841 4.52092788 34.16511485 6.59231945 31.57562256 9.05462646 C28.21696663 12.25847461 25.186259 15.66107593 22.14813232 19.16351318 C19.04460254 22.68869855 15.80808115 26.08551803 12.57562256 29.49212646 C7.75573508 34.59165286 2.94939375 39.70126657 -1.79937744 44.86712646 C-6.44009356 49.91239721 -11.11213793 54.92754299 -15.79937744 59.92962646 C-16.44334473 60.61742187 -17.08731201 61.30521729 -17.75079346 62.01385498 C-18.65849487 62.9814978 -18.65849487 62.9814978 -19.58453369 63.96868896 C-20.38902954 64.82647949 -20.38902954 64.82647949 -21.20977783 65.70159912 C-21.7137207 66.23059814 -22.21766357 66.75959717 -22.73687744 67.30462646 C-23.16357727 67.82566452 -23.5902771 68.34670258 -24.02990723 68.88352966 C-26.30530385 70.77785614 -27.63901104 70.66784908 -30.57550049 70.64520264 C-31.55629074 70.64497604 -32.53708099 70.64474945 -33.54759216 70.64451599 C-34.60392349 70.62903214 -35.66025482 70.61354828 -36.74859619 70.59759521 C-37.83195755 70.59335037 -38.91531891 70.58910553 -40.0315094 70.58473206 C-43.49605021 70.56792216 -46.96001206 70.53026495 -50.42437744 70.49212646 C-52.77137426 70.47708265 -55.11838018 70.46339372 -57.46539307 70.45111084 C-63.22275249 70.41801108 -68.97977361 70.36778851 -74.73687744 70.30462646 C-73.4651671 66.94810874 -72.02248341 63.896872 -70.19000244 60.81243896 C-69.68203125 59.95432617 -69.17406006 59.09621338 -68.6506958 58.21209717 C-68.10163574 57.29388184 -67.55257568 56.3756665 -66.98687744 55.42962646 C-66.41268066 54.46436035 -65.83848389 53.49909424 -65.24688721 52.50457764 C-61.08539712 45.5244317 -56.89052612 38.56437878 -52.67437744 31.61712646 C-52.15843018 30.76586182 -51.64248291 29.91459717 -51.11090088 29.03753662 C-50.00648615 27.22555343 -48.86272813 25.43718327 -47.6885376 23.6696167 C-46.06252082 20.8660904 -45.01008349 18.4232846 -43.90631104 15.41033936 C-35.76609414 -4.17214904 -18.15291829 -0.93575403 0 0 Z " fill="#000000" transform="translate(374.73687744140625,5.69537353515625)"/>
</svg>
